<svg id="SvgjsSvg1034" width="288" height="288" xmlns="http://www.w3.org/2000/svg" version="1.1" xmlns:xlink="http://www.w3.org/1999/xlink" xmlns:svgjs="http://svgjs.com/svgjs"><defs id="SvgjsDefs1035"></defs><g id="SvgjsG1036"><svg xmlns="http://www.w3.org/2000/svg" width="288" height="288" viewBox="0 0 197.951 197.951"><path fill="#616f76" d="m 154.80875,263.17816 -98.975636,-10e-6 -49.4878152,-85.71542 49.4878242,-85.715412 98.975637,4e-6 49.48782,85.715418 z" transform="translate(-6.345 -78.487)" class="colorac2b37 svgShape"></path><path fill="#22272a" stroke="#000000" stroke-width=".265" d="m 72.90834,-5.32467 5.30845,1.2255 5.3119,2.41189 v 3.37456 l -5.3119,2.41189 -5.30845,1.2255 -0.48616,4.62552 4.93765,2.3024 4.69437,3.46359 -0.70161,3.30082 -5.69729,1.25478 -5.44724,0.09503 -1.43724,4.42336 4.35105,3.27869 3.87167,4.36391 -1.37256,3.08282 -5.83367,0.04282 -5.34796,-1.03959 -2.3255,4.02788 3.57429,4.11168 2.87975,5.07352 -1.98352,2.73007 -5.71509,-1.171 -5.01495,-2.12878 -3.11213,3.45637 2.64132,4.76496 1.76198,5.56139 -2.50779,2.25802 -5.34674,-2.33365 -4.46277,-3.12493 -3.76273,2.73379 1.59291,5.21 0.5672,5.80619 -2.92246,1.68728 -4.74471,-3.3943 -3.71554,-3.9845 -4.24889,1.89173 0.47488,5.42733 -0.65237,5.79724 -3.2094,1.0428 -3.93531,-4.30661 -2.80592,-4.66994 -4.54937,0.967 -0.6639,5.40747 -1.84343,5.53492 -3.35607,0.35274 -2.95392,-5.0307 -1.77367,-5.15127 h -4.651 l -1.77367,5.15127 -2.95392,5.0307 -3.35607,-0.35274 -1.84343,-5.53492 -0.6639,-5.40747 -4.54937,-0.967 -2.80592,4.66994 -3.93531,4.30661 -3.2094,-1.0428 -0.65237,-5.79724 0.47488,-5.42733 -4.24889,-1.89173 -3.71554,3.9845 -4.74471,3.3943 -2.92246,-1.68728 0.5672,-5.80619 1.59291,-5.21 -3.76273,-2.73379 -4.46277,3.12493 -5.34674,2.33365 -2.50779,-2.25802 1.76198,-5.56139 2.64132,-4.76496 -3.11213,-3.45637 -5.01495,2.12878 -5.71509,1.171 -1.98352,-2.73007 2.87975,-5.07352 3.57429,-4.11168 -2.3255,-4.02788 -5.34796,1.03959 -5.83367,-0.04282 -1.37256,-3.08282 3.87167,-4.36391 4.35105,-3.27869 -1.43724,-4.42336 -5.44724,-0.09503 -5.69729,-1.25478 -0.70161,-3.30082 4.69437,-3.46359 4.93765,-2.3024 -0.48616,-4.62552 -5.30845,-1.2255 -5.3119,-2.41189 v -3.37456 l 5.3119,-2.41189 5.30845,-1.2255 0.48616,-4.62552 -4.93765,-2.3024 -4.69437,-3.46359 0.70161,-3.30082 5.69729,-1.25478 5.44724,-0.09503 1.43724,-4.42336 -4.35105,-3.27869 -3.87167,-4.36391 1.37256,-3.08282 5.83367,-0.04282 5.34796,1.03959 2.3255,-4.02788 -3.57429,-4.11168 -2.87975,-5.07352 1.98352,-2.73007 5.71509,1.171 5.01495,2.12878 3.11213,-3.45637 -2.64132,-4.76496 -1.76198,-5.56139 2.50779,-2.25802 5.34674,2.33365 4.46277,3.12493 3.76273,-2.73379 -1.59291,-5.21 -0.5672,-5.80619 2.92246,-1.68728 4.74471,3.3943 3.71554,3.9845 4.24889,-1.89173 -0.47488,-5.42733 0.65237,-5.79724 3.2094,-1.0428 3.93531,4.30661 2.80592,4.66994 4.54937,-0.967 0.6639,-5.40747 1.84343,-5.53492 3.35607,-0.35274 2.95392,5.0307 1.77367,5.15127 h 4.651 l 1.77367,-5.15127 2.95392,-5.0307 3.35607,0.35274 1.84343,5.53492 0.6639,5.40747 4.54937,0.967 2.80592,-4.66994 3.93531,-4.30661 3.2094,1.0428 0.65237,5.79724 -0.47488,5.42733 4.24889,1.89173 3.71554,-3.9845 4.74471,-3.3943 2.92246,1.68728 -0.5672,5.80619 -1.59291,5.21 3.76273,2.73379 4.46277,-3.12493 5.34674,-2.33365 2.50779,2.25802 -1.76198,5.56139 -2.64132,4.76496 3.11213,3.45637 5.01495,-2.12878 5.71509,-1.171 1.98352,2.73007 -2.87975,5.07352 -3.57429,4.11168 2.3255,4.02788 5.34796,-1.03959 5.83367,0.04282 1.37256,3.08282 -3.87167,4.36391 -4.35105,3.27869 1.43724,4.42336 5.44724,0.09503 5.69729,1.25478 0.70161,3.30082 -4.69437,3.46359 -4.93765,2.3024 z" transform="translate(98.976 98.976)" class="color262626 svgShape colorStroke000 svgStroke"></path><path fill="#a8b3b8" d="M 50.350001,69.576383 H 69.360568 L 82.652509,125.47466 95.841412,69.576383 h 19.113608 l 13.1889,55.898277 13.29194,-55.898277 h 18.85601 l -18.13474,76.918097 h -22.8745 L 105.32094,88.020239 91.513803,146.49448 H 68.6393 Z" font-weight="700" transform="translate(-6.345 -6.414)" class="colora9b0b7 svgShape"></path></svg></g></svg>